<svg version="1.0" xmlns="http://www.w3.org/2000/svg"
 width="194.000000pt" height="202.000000pt" viewBox="0 0 194.000000 202.000000"
 preserveAspectRatio="xMidYMid meet">

<g transform="translate(0.000000,202.000000) scale(0.100000,-0.100000)"
fill="#000000" stroke="none">
<path d="M303 1855 c-34 -15 -58 -48 -49 -71 5 -12 107 -14 708 -12 l703 3 3
21 c2 14 -8 30 -28 48 l-32 26 -636 0 c-519 -1 -643 -3 -669 -15z"/>
<path d="M1210 1680 c-11 -11 -20 -33 -20 -49 0 -15 9 -40 20 -54 11 -14 20
-40 20 -59 0 -18 9 -48 21 -67 11 -18 18 -36 15 -38 -3 -3 -23 9 -46 27 -31
24 -46 31 -66 26 -55 -14 -43 -75 21 -105 25 -12 45 -26 45 -31 0 -6 22 -10
48 -10 36 0 54 5 67 20 10 11 28 20 40 20 12 0 30 -9 40 -20 22 -25 125 -30
125 -6 0 8 15 17 35 20 57 11 83 67 47 99 -26 24 -39 21 -84 -14 -21 -17 -41
-29 -45 -26 -3 3 4 26 16 50 11 24 21 54 21 66 0 13 9 34 20 48 27 34 25 69
-5 98 -27 27 -55 31 -88 13 -31 -17 -128 -18 -152 -1 -28 19 -72 16 -95 -7z
m70 -38 c0 -5 -9 -17 -19 -26 -22 -20 -40 -4 -21 19 13 16 40 20 40 7z m238
-20 c4 -24 -7 -29 -26 -10 -18 18 -15 40 6 36 9 -2 18 -13 20 -26z m-195 -46
c8 -21 -17 -40 -31 -23 -9 10 -8 17 0 25 16 16 25 15 31 -2z m141 -17 c-8 -14
-34 -11 -34 4 0 8 3 17 7 20 9 9 34 -13 27 -24z m-60 -64 c-1 -35 -4 -40 -25
-40 -20 0 -24 5 -26 30 -2 44 4 57 29 53 20 -3 23 -9 22 -43z"/>
<path d="M398 1674 c-16 -8 -28 -18 -28 -23 0 -4 15 -26 32 -49 37 -49 46 -41
47 41 1 52 -6 56 -51 31z"/>
<path d="M486 1674 c-9 -23 -7 -124 2 -124 8 0 45 38 86 87 19 23 19 23 -17
38 -46 19 -63 19 -71 -1z"/>
<path d="M863 1662 c-29 -14 -53 -29 -53 -33 0 -3 29 -18 64 -33 l63 -27 57
28 c31 15 56 30 56 34 0 9 -107 59 -124 58 -6 0 -35 -12 -63 -27z"/>
<path d="M582 1587 c-23 -23 -42 -46 -42 -50 0 -4 29 -7 65 -7 36 0 65 2 65 5
0 6 -41 95 -44 95 -1 0 -21 -19 -44 -43z"/>
<path d="M304 1585 c-21 -52 -19 -55 46 -55 33 0 60 4 60 8 0 10 -73 82 -83
82 -5 0 -15 -16 -23 -35z"/>
<path d="M790 1511 l0 -78 59 -27 c32 -14 62 -26 65 -26 4 0 6 35 4 77 l-3 77
-55 27 c-30 16 -58 28 -62 29 -5 0 -8 -35 -8 -79z"/>
<path d="M1005 1560 l-50 -27 -3 -77 c-2 -42 -1 -76 2 -76 3 0 30 12 61 27
l55 27 0 78 c0 43 -3 78 -7 77 -5 -1 -30 -13 -58 -29z"/>
<path d="M406 1505 c-12 -9 -42 -15 -73 -15 -53 0 -53 0 -47 -27 4 -16 12 -41
18 -57 l11 -29 63 58 c34 32 62 64 62 72 0 17 -10 16 -34 -2z"/>
<path d="M502 1512 c-12 -4 87 -103 124 -125 15 -8 30 20 41 76 5 26 4 27 -41
27 -26 0 -61 6 -79 13 -18 8 -38 12 -45 9z"/>
<path d="M484 1399 c4 -35 11 -68 16 -73 12 -12 75 1 90 19 9 11 4 22 -32 55
-23 23 -52 46 -62 52 -18 10 -18 7 -12 -53z"/>
<path d="M391 1396 l-43 -44 23 -15 c13 -8 39 -17 57 -21 l33 -6 -6 58 c-4 31
-10 60 -14 64 -4 5 -26 -12 -50 -36z"/>
<path d="M293 1250 c-69 -41 -68 -33 -67 -550 0 -459 0 -466 22 -507 14 -27
38 -51 65 -68 l44 -25 597 0 c566 0 599 1 634 19 42 22 63 43 86 88 14 28 16
88 16 498 0 514 1 506 -63 545 -31 19 -55 20 -667 20 -612 0 -636 -1 -667 -20z
m1234 -101 c15 -5 31 -16 35 -22 4 -7 8 -200 8 -430 l0 -418 -32 -30 -32 -29
-547 0 -547 0 -31 26 -31 26 0 428 c0 332 3 431 13 437 21 14 202 19 679 21
303 1 466 -2 485 -9z"/>
<path d="M635 998 c-33 -17 -45 -40 -45 -80 0 -97 123 -121 165 -32 35 74 -48
152 -120 112z"/>
<path d="M1200 997 c-54 -27 -62 -96 -15 -143 55 -55 145 -12 145 70 0 38 -10
55 -41 71 -34 18 -56 19 -89 2z"/>
<path d="M903 843 c-19 -2 -37 -13 -44 -24 -11 -21 -9 -26 39 -77 44 -49 19
-146 -36 -140 -19 2 -32 13 -42 35 -18 38 -34 47 -61 33 -58 -32 25 -150 106
-150 30 0 85 26 85 40 0 5 16 -2 36 -15 20 -14 51 -25 68 -25 75 0 156 106
114 148 -22 22 -46 13 -65 -25 -32 -67 -97 -50 -110 30 -4 30 0 40 31 74 33
38 46 76 29 86 -13 8 -116 15 -150 10z"/>
<path d="M460 735 c-31 -38 28 -69 123 -63 45 3 52 6 55 25 4 29 -20 41 -99
49 -54 5 -67 3 -79 -11z"/>
<path d="M1334 741 c-43 -11 -54 -19 -54 -41 0 -30 28 -39 100 -29 73 11 83
17 78 50 -3 21 -9 24 -48 26 -25 1 -59 -2 -76 -6z"/>
<path d="M498 593 c-34 -5 -51 -26 -43 -52 9 -28 30 -31 104 -17 66 12 89 30
78 60 -5 12 -19 16 -59 15 -29 -1 -65 -4 -80 -6z"/>
<path d="M1287 593 c-11 -11 -8 -40 6 -51 7 -6 42 -16 77 -21 58 -10 67 -9 83
8 30 29 9 57 -49 65 -60 8 -109 8 -117 -1z"/>
<path d="M1790 225 c-19 -22 -8 -50 21 -53 34 -4 46 24 23 49 -21 23 -28 23
-44 4z"/>
</g>
</svg>
